# xmcd CD database file
#
# Track frame offsets:
#	150
#	23990
#	46857
#
# Disc length: 941 seconds
#
# Revision: 3
# Processed by: cddbd v1.5.1PL0 Copyright (c) Steve Scherf et al.
# Submitted via: CDex 1.51
#
DISCID=1b03ab03
DTITLE=PERSONZ - SAYONARAは言わない
DYEAR=1994
DGENRE=Rock
TTITLE0=SAYONARAは言わない
TTITLE1=HELLO, NEW FRONTIER
TTITLE2=SAYONARAは言わない(ORIGINAL LARAOKE)
EXTD=YEAR: 1994
EXTT0=
EXTT1=
EXTT2=
PLAYORDER=
